<mxfile host="app.diagrams.net" agent="Mozilla/5.0 (Macintosh; Intel Mac OS X 10_15_7) AppleWebKit/537.36 (KHTML, like Gecko) Chrome/134.0.0.0 Safari/537.36" version="27.1.3">
  <diagram name="Page-1" id="rZLuHyNbnVCkVt4fs0tZ">
    <mxGraphModel dx="1031" dy="661" grid="1" gridSize="10" guides="1" tooltips="1" connect="1" arrows="1" fold="1" page="1" pageScale="1" pageWidth="827" pageHeight="1169" math="0" shadow="0">
      <root>
        <mxCell id="0" />
        <mxCell id="1" parent="0" />
        <mxCell id="Myhaq8KFCQVNQdDXoNRX-1" value="" style="endArrow=classic;html=1;rounded=0;" edge="1" parent="1" source="Myhaq8KFCQVNQdDXoNRX-7" target="Myhaq8KFCQVNQdDXoNRX-3">
          <mxGeometry width="50" height="50" relative="1" as="geometry">
            <mxPoint x="500" y="250" as="sourcePoint" />
            <mxPoint x="550" y="200" as="targetPoint" />
          </mxGeometry>
        </mxCell>
        <mxCell id="Myhaq8KFCQVNQdDXoNRX-2" value="Applikasjon" style="swimlane;whiteSpace=wrap;html=1;expand=1;collapsible=0;" vertex="1" parent="1">
          <mxGeometry x="540" y="110" width="200" height="400" as="geometry">
            <mxRectangle x="290" y="240" width="160" height="30" as="alternateBounds" />
          </mxGeometry>
        </mxCell>
        <mxCell id="Myhaq8KFCQVNQdDXoNRX-3" value="&lt;span style=&quot;background-color: rgb(255, 255, 255);&quot;&gt;Nettside&lt;/span&gt;" style="sketch=0;pointerEvents=1;shadow=0;dashed=0;html=1;strokeColor=none;fillColor=#505050;labelPosition=right;verticalLabelPosition=middle;verticalAlign=middle;outlineConnect=0;align=left;shape=mxgraph.office.concepts.website;spacingLeft=0;spacingBottom=0;spacingTop=0;spacingRight=0;" vertex="1" parent="Myhaq8KFCQVNQdDXoNRX-2">
          <mxGeometry x="70.5" y="59" width="59" height="49" as="geometry" />
        </mxCell>
        <mxCell id="Myhaq8KFCQVNQdDXoNRX-4" value="Server" style="shape=image;verticalLabelPosition=bottom;labelBackgroundColor=default;verticalAlign=top;aspect=fixed;imageAspect=0;image=https://www.svgrepo.com/show/88703/api.svg;" vertex="1" parent="Myhaq8KFCQVNQdDXoNRX-2">
          <mxGeometry x="62.5" y="240" width="75" height="75" as="geometry" />
        </mxCell>
        <mxCell id="Myhaq8KFCQVNQdDXoNRX-5" value="" style="endArrow=classic;startArrow=classic;html=1;rounded=0;" edge="1" parent="Myhaq8KFCQVNQdDXoNRX-2" source="Myhaq8KFCQVNQdDXoNRX-4" target="Myhaq8KFCQVNQdDXoNRX-3">
          <mxGeometry width="50" height="50" relative="1" as="geometry">
            <mxPoint x="79.5" y="210" as="sourcePoint" />
            <mxPoint x="129.5" y="160" as="targetPoint" />
          </mxGeometry>
        </mxCell>
        <mxCell id="Myhaq8KFCQVNQdDXoNRX-6" value="Transportledere" style="swimlane;whiteSpace=wrap;html=1;expand=1;collapsible=0;" vertex="1" parent="1">
          <mxGeometry x="300" y="110" width="200" height="150" as="geometry" />
        </mxCell>
        <mxCell id="Myhaq8KFCQVNQdDXoNRX-7" value="" style="sketch=0;outlineConnect=0;fontColor=#232F3E;gradientColor=none;fillColor=#232F3D;strokeColor=none;dashed=0;verticalLabelPosition=bottom;verticalAlign=top;align=center;html=1;fontSize=12;fontStyle=0;aspect=fixed;pointerEvents=1;shape=mxgraph.aws4.client;" vertex="1" parent="Myhaq8KFCQVNQdDXoNRX-6">
          <mxGeometry x="65.62" y="50" width="68.76" height="67" as="geometry" />
        </mxCell>
        <mxCell id="Myhaq8KFCQVNQdDXoNRX-8" value="Eksterne kilder" style="swimlane;whiteSpace=wrap;html=1;expand=1;collapsible=0;" vertex="1" parent="1">
          <mxGeometry x="780" y="110" width="200" height="400" as="geometry" />
        </mxCell>
        <mxCell id="Myhaq8KFCQVNQdDXoNRX-9" value="" style="shape=image;verticalLabelPosition=bottom;labelBackgroundColor=default;verticalAlign=top;aspect=fixed;imageAspect=0;image=https://cdn-icons-png.flaticon.com/512/1554/1554121.png;" vertex="1" parent="Myhaq8KFCQVNQdDXoNRX-8">
          <mxGeometry x="65" y="150" width="70" height="70" as="geometry" />
        </mxCell>
        <mxCell id="Myhaq8KFCQVNQdDXoNRX-10" value="" style="shape=image;verticalLabelPosition=bottom;labelBackgroundColor=default;verticalAlign=top;aspect=fixed;imageAspect=0;image=https://www.svgrepo.com/show/399319/wms.svg;" vertex="1" parent="Myhaq8KFCQVNQdDXoNRX-8">
          <mxGeometry x="65" y="235" width="70" height="70" as="geometry" />
        </mxCell>
        <mxCell id="Myhaq8KFCQVNQdDXoNRX-11" value="" style="shape=image;verticalLabelPosition=bottom;labelBackgroundColor=default;verticalAlign=top;aspect=fixed;imageAspect=0;image=https://www.svgrepo.com/show/399315/wfs.svg;" vertex="1" parent="Myhaq8KFCQVNQdDXoNRX-8">
          <mxGeometry x="65" y="315" width="70" height="70" as="geometry" />
        </mxCell>
        <mxCell id="Myhaq8KFCQVNQdDXoNRX-12" value="Bakgrunnskart" style="shape=image;verticalLabelPosition=bottom;labelBackgroundColor=default;verticalAlign=top;aspect=fixed;imageAspect=0;image=https://www.svgrepo.com/show/342087/openstreetmap.svg;shadow=0;imageBorder=none; editableCssRules=.*;comic=0;imageBackground=none;" vertex="1" parent="Myhaq8KFCQVNQdDXoNRX-8">
          <mxGeometry x="65" y="40" width="70" height="70" as="geometry" />
        </mxCell>
        <mxCell id="Myhaq8KFCQVNQdDXoNRX-13" value="" style="endArrow=classic;startArrow=classic;html=1;rounded=0;" edge="1" parent="1" source="Myhaq8KFCQVNQdDXoNRX-4" target="Myhaq8KFCQVNQdDXoNRX-9">
          <mxGeometry width="50" height="50" relative="1" as="geometry">
            <mxPoint x="700" y="465" as="sourcePoint" />
            <mxPoint x="750" y="415" as="targetPoint" />
          </mxGeometry>
        </mxCell>
        <mxCell id="Myhaq8KFCQVNQdDXoNRX-14" value="" style="endArrow=classic;startArrow=classic;html=1;rounded=0;" edge="1" parent="1" source="Myhaq8KFCQVNQdDXoNRX-4" target="Myhaq8KFCQVNQdDXoNRX-12">
          <mxGeometry width="50" height="50" relative="1" as="geometry">
            <mxPoint x="830" y="375" as="sourcePoint" />
            <mxPoint x="880" y="325" as="targetPoint" />
          </mxGeometry>
        </mxCell>
        <mxCell id="Myhaq8KFCQVNQdDXoNRX-15" value="" style="endArrow=classic;startArrow=classic;html=1;rounded=0;" edge="1" parent="1" source="Myhaq8KFCQVNQdDXoNRX-4" target="Myhaq8KFCQVNQdDXoNRX-10">
          <mxGeometry width="50" height="50" relative="1" as="geometry">
            <mxPoint x="797" y="449" as="sourcePoint" />
            <mxPoint x="930" y="350" as="targetPoint" />
          </mxGeometry>
        </mxCell>
        <mxCell id="Myhaq8KFCQVNQdDXoNRX-16" value="" style="endArrow=classic;startArrow=classic;html=1;rounded=0;" edge="1" parent="1" source="Myhaq8KFCQVNQdDXoNRX-4" target="Myhaq8KFCQVNQdDXoNRX-11">
          <mxGeometry width="50" height="50" relative="1" as="geometry">
            <mxPoint x="797" y="471" as="sourcePoint" />
            <mxPoint x="930" y="447" as="targetPoint" />
          </mxGeometry>
        </mxCell>
      </root>
    </mxGraphModel>
  </diagram>
</mxfile>
